<svg width="79" height="75" viewBox="0 0 79 75" fill="none" xmlns="http://www.w3.org/2000/svg">
<path d="M58.8947 12.0465H5.67763C5.06065 12.0465 4.59086 12.5997 4.69085 13.2086L13.9573 69.6302C14.049 70.1883 14.585 70.5594 15.1397 70.4488L73.4025 58.828C73.9876 58.7113 74.341 58.1114 74.1594 57.543L59.8472 12.7422C59.7149 12.3278 59.3297 12.0465 58.8947 12.0465Z" fill="#495057"/>
<path d="M60.6165 22.1168L9.14367 23.7316C8.53846 23.7505 8.08885 24.2988 8.18872 24.896L14.834 64.6351C14.9255 65.1824 15.445 65.5505 15.9917 65.4554L43.875 60.6046L70.7578 55.7818C71.3506 55.6755 71.7156 55.073 71.5354 54.4983L61.602 22.8171C61.4678 22.389 61.0649 22.1027 60.6165 22.1168Z" fill="white"/>
<path d="M27.6774 28.8162L17.8823 29.1397C17.2811 29.1596 16.8334 29.7019 16.9277 30.296L18.1236 37.826C18.2117 38.3806 18.7391 38.7539 19.2914 38.6527L24.613 37.678L29.6609 36.7245C30.2434 36.6145 30.6029 36.0247 30.4337 35.4565L28.6689 29.5302C28.5391 29.0945 28.1318 28.8012 27.6774 28.8162Z" fill="#495057"/>
<path d="M43.4274 28.8162L33.6323 29.1397C33.0311 29.1596 32.5834 29.7019 32.6777 30.296L33.8736 37.826C33.9617 38.3806 34.4891 38.7539 35.0414 38.6527L40.363 37.678L45.4109 36.7245C45.9934 36.6145 46.3529 36.0247 46.1837 35.4565L44.4189 29.5302C44.2891 29.0945 43.8818 28.8012 43.4274 28.8162Z" fill="#495057"/>
<path d="M59.1774 28.8162L49.3823 29.1397C48.7811 29.1596 48.3334 29.7019 48.4277 30.296L49.6236 37.826C49.7117 38.3806 50.2391 38.7539 50.7914 38.6527L56.113 37.678L61.1609 36.7245C61.7434 36.6145 62.1029 36.0247 61.9337 35.4565L60.1689 29.5302C60.0391 29.0945 59.6318 28.8012 59.1774 28.8162Z" fill="#495057"/>
<path d="M31.1774 45.5604L21.3823 45.8839C20.7811 45.9037 20.3334 46.4461 20.4277 47.0402L21.6236 54.5701C21.7117 55.1247 22.2391 55.4981 22.7914 55.3969L28.113 54.4222L33.1609 53.4687C33.7434 53.3587 34.1029 52.7689 33.9337 52.2007L32.1689 46.2744C32.0391 45.8387 31.6318 45.5453 31.1774 45.5604Z" fill="#495057"/>
<path d="M46.9274 45.5604L37.1323 45.8839C36.5311 45.9037 36.0834 46.4461 36.1777 47.0402L37.3736 54.5701C37.4617 55.1247 37.9891 55.4981 38.5414 55.3969L43.863 54.4222L48.9109 53.4687C49.4934 53.3587 49.8529 52.7689 49.6837 52.2007L47.9189 46.2744C47.7891 45.8387 47.3818 45.5453 46.9274 45.5604Z" fill="#495057"/>
<path d="M60.9043 8.69766H2.17519C1.55904 8.69766 1.08947 9.24949 1.18808 9.8577L11.4212 72.974C11.512 73.5341 12.0501 73.9065 12.6063 73.7941L76.9098 60.802C77.4923 60.6843 77.8442 60.0877 77.6655 59.521L61.858 9.3969C61.7268 8.98068 61.3407 8.69766 60.9043 8.69766Z" stroke="#495057" stroke-width="2"/>
<ellipse cx="20.25" cy="17.0698" rx="3.5" ry="3.34884" fill="white"/>
<ellipse cx="48.25" cy="17.0698" rx="3.5" ry="3.34884" fill="white"/>
<path d="M9.75 8.15225C9.75 8.15225 15.7064 -1.65486 20.8962 3.49502C26.0861 8.6449 22.875 14.5581 22.875 14.5581" stroke="#495057" stroke-width="3"/>
<path d="M36.875 8.69769C36.875 8.69769 43.7064 -1.19798 48.8962 3.30816C54.0861 7.81431 50.6111 13.7209 50.6111 13.7209" stroke="#495057" stroke-width="3"/>
</svg>
