<svg width="169" height="162" viewBox="0 0 169 162" fill="none" xmlns="http://www.w3.org/2000/svg">
<ellipse cx="84.5" cy="80.5" rx="84.5" ry="80.5" fill="#495057"/>
<path d="M63.9754 157.3C63.9754 161.328 61.292 162 61.292 162H111.203C111.203 162 106.91 161.328 106.91 157.3V121.043C106.91 117.015 106.708 115.001 101.007 106.944C95.3055 98.8865 75.2457 98.2153 68.8056 106.944C62.3654 115.672 63.9754 118.358 63.9754 118.358V157.3Z" fill="white"/>
<path d="M48.0177 126.694C54.0305 128.883 64.4779 126.694 64.4779 126.694V137.431C64.4779 137.431 57.4235 139.674 52.7965 139.476C46.6623 139.213 42.8181 137.98 37.9292 134.363C32.3168 130.211 34.7434 123.626 28.3717 119.536C22 115.446 22 111.355 22 111.355C22 111.355 28.3717 108.799 35.2743 115.446C42.177 122.092 41.7028 124.395 48.0177 126.694Z" fill="white"/>
<path d="M142 73.2323C142 96.9515 117.57 113.623 86.7788 113.623C55.9877 113.623 30.4956 96.9515 30.4956 73.2323C30.4956 49.5131 55.9877 31.8188 86.7788 31.8188C117.57 31.8188 142 49.5131 142 73.2323Z" fill="white"/>
<path d="M132.462 26.2466C130.357 24.2533 108.573 34.9659 108.018 36.0559L132.462 50.2248C133.017 49.6798 134.566 28.2398 132.462 26.2466Z" fill="white"/>
<path d="M38.4602 36.0559C38.0034 41.0069 40.5841 49.7135 40.5841 49.7135L65.0089 35.3977C65.0089 35.3977 59.1936 31.3621 55.4514 29.7737C50.1638 27.5293 42.177 25.6834 41.1151 26.2466C40.0532 26.8097 38.824 32.1127 38.4602 36.0559Z" fill="white"/>
</svg>
