<svg width="292" height="176" viewBox="0 0 292 176" fill="none" xmlns="http://www.w3.org/2000/svg">
<mask id="path-1-inside-1" fill="white">
<path fill-rule="evenodd" clip-rule="evenodd" d="M162.718 95.5319C172.536 75.065 183.278 52.6715 183.278 41.4242C183.278 18.5462 166.183 0 145.095 0C124.007 0 106.912 18.5462 106.912 41.4242C106.912 54.556 123.552 86.2371 135.973 109.884C140.754 118.987 144.91 126.899 147.25 132.104C147.231 132.194 147.212 132.284 147.194 132.372H147.37C147.331 132.284 147.291 132.194 147.25 132.104C148.924 124.287 155.577 110.419 162.718 95.5319Z"/>
</mask>
<path fill-rule="evenodd" clip-rule="evenodd" d="M162.718 95.5319C172.536 75.065 183.278 52.6715 183.278 41.4242C183.278 18.5462 166.183 0 145.095 0C124.007 0 106.912 18.5462 106.912 41.4242C106.912 54.556 123.552 86.2371 135.973 109.884C140.754 118.987 144.91 126.899 147.25 132.104C147.231 132.194 147.212 132.284 147.194 132.372H147.37C147.331 132.284 147.291 132.194 147.25 132.104C148.924 124.287 155.577 110.419 162.718 95.5319Z" fill="white"/>
<path d="M162.718 95.5319L153.701 91.2069L153.701 91.2069L162.718 95.5319ZM135.973 109.884L144.826 105.234L144.826 105.234L135.973 109.884ZM147.194 132.372L137.394 130.383L134.961 142.372H147.194V132.372ZM147.37 132.372V142.372H162.774L156.505 128.302L147.37 132.372ZM173.278 41.4242C173.278 44.8213 171.4 51.5181 167.424 61.2337C163.645 70.4705 158.643 80.9046 153.701 91.2069L171.734 99.857C176.61 89.6924 181.889 78.6962 185.935 68.8077C189.785 59.3979 193.278 49.2743 193.278 41.4242H173.278ZM145.095 10C159.908 10 173.278 23.2864 173.278 41.4242H193.278C193.278 13.8061 172.457 -10 145.095 -10V10ZM116.912 41.4242C116.912 23.2864 130.281 10 145.095 10V-10C117.733 -10 96.912 13.8061 96.912 41.4242H116.912ZM144.826 105.234C138.587 93.3552 131.458 79.7774 125.882 67.5591C123.095 61.4521 120.78 55.8654 119.179 51.1317C117.5 46.167 116.912 43.0046 116.912 41.4242H96.912C96.912 46.4097 98.4043 52.1319 100.233 57.5396C102.14 63.1784 104.762 69.4521 107.687 75.8627C113.537 88.6795 120.938 102.766 127.12 114.534L144.826 105.234ZM156.371 128.003C153.873 122.448 149.535 114.199 144.826 105.234L127.12 114.534C131.973 123.775 135.947 131.35 138.13 136.205L156.371 128.003ZM137.472 130.01C137.445 130.135 137.42 130.259 137.394 130.383L156.995 134.361C157.005 134.309 157.017 134.254 157.029 134.198L137.472 130.01ZM147.194 142.372H147.37V122.372H147.194V142.372ZM156.505 128.302C156.461 128.203 156.416 128.104 156.371 128.003L138.13 136.205C138.166 136.285 138.201 136.364 138.236 136.442L156.505 128.302ZM153.701 91.2069C150.152 98.607 146.623 105.961 143.776 112.453C141.006 118.768 138.542 125.011 137.472 130.011L157.029 134.198C157.632 131.379 159.331 126.78 162.092 120.485C164.775 114.367 168.143 107.344 171.734 99.857L153.701 91.2069Z" fill="#495057" mask="url(#path-1-inside-1)"/>
<path d="M155.368 41.9716C155.368 48.3902 150.511 53.1146 145.095 53.1146C139.679 53.1146 134.822 48.3902 134.822 41.9716C134.822 35.553 139.679 30.8286 145.095 30.8286C150.511 30.8286 155.368 35.553 155.368 41.9716Z" stroke="#495057" stroke-width="10"/>
<path d="M11.1533 171L63.4224 112.349H228.369L280.821 171H11.1533Z" stroke="#495057" stroke-width="10"/>
</svg>
