<svg width="443" height="160" viewBox="0 0 443 160" fill="none" xmlns="http://www.w3.org/2000/svg">
<path d="M192.453 92.2188C192.062 91.8932 191.314 91.3398 190.207 90.5586C189.165 89.7122 188.059 88.8333 186.887 87.9219C185.715 86.9453 184.608 86.0664 183.566 85.2852C182.525 84.5039 181.809 83.9505 181.418 83.625C180.832 83.1693 180.344 82.7786 179.953 82.4531C179.628 82.0625 179.465 81.444 179.465 80.5977C180.441 80.5977 181.288 80.8581 182.004 81.3789C182.72 81.8346 183.404 82.3555 184.055 82.9414C184.771 83.4622 185.487 83.9505 186.203 84.4062C186.984 84.862 187.863 85.0898 188.84 85.0898C188.84 84.4388 188.84 83.2995 188.84 81.6719C188.905 79.9792 188.938 78.1888 188.938 76.3008C189.003 74.4128 189.035 72.6549 189.035 71.0273C189.1 69.3346 189.133 68.1302 189.133 67.4141C189.133 67.1536 189.068 66.5352 188.938 65.5586C188.872 64.5169 188.775 63.4427 188.645 62.3359C188.579 61.1641 188.482 60.0898 188.352 59.1133C188.286 58.1367 188.254 57.5182 188.254 57.2578C188.254 57.1276 188.286 56.7695 188.352 56.1836C188.417 55.5326 188.514 54.8815 188.645 54.2305C188.775 53.5794 188.872 52.9609 188.938 52.375C189.068 51.7891 189.133 51.431 189.133 51.3008V49.1523V46.9062C189.133 46.776 189.068 46.3854 188.938 45.7344C188.872 45.0833 188.775 44.3672 188.645 43.5859C188.514 42.8047 188.417 42.0885 188.352 41.4375C188.286 40.7865 188.254 40.3633 188.254 40.168C188.254 39.9076 188.286 39.4518 188.352 38.8008C188.417 38.1497 188.482 37.4661 188.547 36.75C188.612 36.0339 188.677 35.3503 188.742 34.6992C188.872 34.0482 189.003 33.625 189.133 33.4297C190.109 32.5833 190.858 32.0625 191.379 31.8672C191.9 31.6719 192.648 31.5742 193.625 31.5742C196.359 31.5742 199.061 32.0951 201.73 33.1367C204.4 34.1133 206.939 35.4805 209.348 37.2383C211.757 38.9961 213.938 41.0469 215.891 43.3906C217.909 45.7344 219.634 48.2083 221.066 50.8125C222.564 53.4167 223.736 56.1185 224.582 58.918C225.428 61.6523 225.852 64.2891 225.852 66.8281C225.852 69.7578 225.233 72.7852 223.996 75.9102C222.824 79.0352 221.197 81.8672 219.113 84.4062C217.03 86.9453 214.589 89.0286 211.789 90.6562C209.055 92.2839 206.125 93.0977 203 93.0977C202.089 93.0977 201.21 93.0326 200.363 92.9023C199.517 92.7721 198.638 92.6419 197.727 92.5117C196.88 92.3815 196.001 92.2839 195.09 92.2188C194.243 92.0885 193.365 92.0885 192.453 92.2188ZM195.09 87.9219C195.09 87.987 195.188 88.1497 195.383 88.4102C195.578 88.6055 195.773 88.7357 195.969 88.8008C196.099 88.8659 196.359 88.9961 196.75 89.1914C197.206 89.3216 197.694 89.4844 198.215 89.6797C198.801 89.875 199.354 90.0378 199.875 90.168C200.396 90.2982 200.754 90.3958 200.949 90.4609H201.535C203.163 90.4609 204.823 90.0703 206.516 89.2891C208.208 88.4427 209.836 87.3685 211.398 86.0664C212.961 84.7643 214.393 83.2669 215.695 81.5742C216.997 79.8164 218.137 78.026 219.113 76.2031C220.09 74.3802 220.871 72.5573 221.457 70.7344C222.043 68.9115 222.336 67.2188 222.336 65.6562C222.336 63.7682 221.945 61.7174 221.164 59.5039C220.383 57.2904 219.309 55.0768 217.941 52.8633C216.639 50.6497 215.109 48.5339 213.352 46.5156C211.594 44.4323 209.706 42.6094 207.688 41.0469C205.734 39.4844 203.716 38.2474 201.633 37.3359C199.615 36.3594 197.629 35.8711 195.676 35.8711C195.22 35.8711 194.764 35.9036 194.309 35.9688C193.853 35.9688 193.43 36.0339 193.039 36.1641C192.648 36.2943 192.29 36.5221 191.965 36.8477C191.704 37.1732 191.574 37.6289 191.574 38.2148C191.574 39.3216 191.574 40.4284 191.574 41.5352C191.574 42.6419 191.607 43.7812 191.672 44.9531C191.802 46.0599 191.965 47.1667 192.16 48.2734C192.421 49.3151 192.811 50.3242 193.332 51.3008L195.09 87.9219Z" fill="#332F2F"/>
<path d="M234.195 58V93H238.745V77.55H240.945C241.879 77.55 242.645 77.6333 243.245 77.8C243.879 77.9667 244.445 78.25 244.945 78.65C245.445 79.05 245.912 79.5667 246.345 80.2C246.779 80.8333 247.295 81.6167 247.895 82.55L251.845 88.4C252.345 89.1667 252.829 89.8667 253.295 90.5C253.795 91.1333 254.329 91.6833 254.895 92.15C255.462 92.5833 256.095 92.9333 256.795 93.2C257.529 93.4667 258.395 93.6 259.395 93.6C260.129 93.6 260.729 93.5667 261.195 93.5C261.662 93.4333 262.129 93.2667 262.595 93V91.15C262.429 91.1833 262.262 91.2167 262.095 91.25C261.929 91.25 261.762 91.25 261.595 91.25C260.895 91.25 260.279 91.15 259.745 90.95C259.212 90.75 258.712 90.4667 258.245 90.1C257.779 89.7 257.329 89.2333 256.895 88.7C256.462 88.1333 256.012 87.5 255.545 86.8C254.145 84.7667 253.062 83.15 252.295 81.95C251.529 80.7167 250.912 79.7667 250.445 79.1C250.012 78.4333 249.645 77.95 249.345 77.65C249.079 77.35 248.745 77.1 248.345 76.9L247.845 76.65V76.45C249.445 76.35 250.812 76 251.945 75.4C253.112 74.8 254.062 74.05 254.795 73.15C255.529 72.25 256.062 71.2833 256.395 70.25C256.729 69.1833 256.895 68.15 256.895 67.15C256.895 66.25 256.712 65.2667 256.345 64.2C256.012 63.1333 255.412 62.15 254.545 61.25C253.712 60.3167 252.562 59.55 251.095 58.95C249.629 58.3167 247.779 58 245.545 58H234.195ZM238.745 60.2H243.795C245.062 60.2 246.195 60.3833 247.195 60.75C248.229 61.1167 249.112 61.6333 249.845 62.3C250.579 62.9333 251.129 63.7 251.495 64.6C251.895 65.5 252.095 66.4833 252.095 67.55C252.095 68.45 251.912 69.3667 251.545 70.3C251.212 71.2 250.695 72.0333 249.995 72.8C249.295 73.5333 248.429 74.1333 247.395 74.6C246.395 75.0667 245.229 75.3 243.895 75.3H238.745V60.2ZM289.534 82.7L294.334 93H299.184L282.884 58H280.384L265.584 93H267.884L272.284 82.7H289.534ZM288.484 80.45H273.234L280.434 63.6H280.634L288.484 80.45ZM338.555 77.4H328.655V79.45H334.255V88.5C332.755 89.4667 331.222 90.1833 329.655 90.65C328.088 91.1167 326.305 91.35 324.305 91.35C321.672 91.35 319.372 90.95 317.405 90.15C315.438 89.35 313.805 88.25 312.505 86.85C311.205 85.4167 310.222 83.7333 309.555 81.8C308.922 79.8333 308.605 77.6833 308.605 75.35C308.605 73.05 308.905 70.9333 309.505 69C310.138 67.0667 311.072 65.4 312.305 64C313.538 62.6 315.038 61.5167 316.805 60.75C318.605 59.9833 320.688 59.6 323.055 59.6C324.622 59.6 326.088 59.7667 327.455 60.1C328.822 60.4333 330.038 60.8667 331.105 61.4C332.172 61.9333 333.038 62.55 333.705 63.25C334.405 63.9167 334.855 64.6 335.055 65.3H338.655C338.355 64.5667 337.838 63.75 337.105 62.85C336.405 61.9167 335.438 61.05 334.205 60.25C332.972 59.45 331.438 58.7833 329.605 58.25C327.805 57.6833 325.672 57.4 323.205 57.4C320.372 57.4 317.755 57.8 315.355 58.6C312.988 59.4 310.938 60.55 309.205 62.05C307.472 63.55 306.122 65.4 305.155 67.6C304.188 69.7667 303.705 72.2333 303.705 75C303.705 77.3667 304.072 79.6667 304.805 81.9C305.572 84.1 306.722 86.0833 308.255 87.85C309.822 89.5833 311.805 90.9833 314.205 92.05C316.605 93.0833 319.472 93.6 322.805 93.6C325.305 93.6 327.522 93.3333 329.455 92.8C331.388 92.2333 332.988 91.6167 334.255 90.95V93H338.555V77.4ZM367.024 82.7L371.824 93H376.674L360.374 58H357.874L343.074 93H345.374L349.774 82.7H367.024ZM365.974 80.45H350.724L357.924 63.6H358.124L365.974 80.45ZM412.395 58V84.75H412.195L384.445 57.4H384.195V93H386.495V66.25H386.695L414.445 93.6H414.695V58H412.395Z" fill="black"/>
<path d="M8.59375 73.0312C7.68229 72.5755 6.9987 72.1198 6.54297 71.6641C6.15234 71.2083 5.95703 70.5573 5.95703 69.7109C5.95703 69.2552 6.02214 68.8646 6.15234 68.5391C6.34766 68.2135 6.54297 67.9206 6.73828 67.6602C6.9987 67.3346 7.22656 67.0091 7.42188 66.6836C7.61719 66.3581 7.71484 65.9674 7.71484 65.5117C7.71484 64.7305 7.71484 63.819 7.71484 62.7773C7.77995 61.7357 7.7474 60.694 7.61719 59.6523C7.48698 58.5456 7.22656 57.5365 6.83594 56.625C6.51042 55.6484 5.92448 54.8672 5.07812 54.2812C5.27344 54.2161 5.56641 53.9883 5.95703 53.5977C6.41276 53.1419 6.70573 52.849 6.83594 52.7188V52.5234C6.83594 52.5234 6.83594 52.4909 6.83594 52.4258C6.83594 52.3607 6.83594 52.2956 6.83594 52.2305C6.83594 51.3841 6.60807 50.7982 6.15234 50.4727C5.76172 50.1471 5.27344 49.9193 4.6875 49.7891C4.16667 49.6589 3.61328 49.5286 3.02734 49.3984C2.44141 49.2682 2.01823 48.9427 1.75781 48.4219C2.47396 47.4453 3.64583 46.599 5.27344 45.8828C6.90104 45.1667 8.72396 44.5482 10.7422 44.0273C12.8255 43.4414 14.974 42.9531 17.1875 42.5625C19.4661 42.1719 21.6797 41.8464 23.8281 41.5859C25.9766 41.2604 27.8971 41.0651 29.5898 41C31.2826 40.8698 32.6172 40.8047 33.5938 40.8047H35.8398C36.4258 40.8047 37.1745 40.8698 38.0859 41C39.0625 41.0651 40.0065 41.1628 40.918 41.293C41.8294 41.3581 42.6107 41.4232 43.2617 41.4883C43.9779 41.5534 44.3359 41.5859 44.3359 41.5859L45.2148 42.3672L44.3359 43.3438C38.6719 43.5391 33.2031 43.9297 27.9297 44.5156C22.7214 45.0365 17.3828 46.0456 11.9141 47.543C11.849 47.6732 11.7839 47.9336 11.7188 48.3242C11.6536 48.7148 11.556 49.138 11.4258 49.5938C11.3607 50.0495 11.2956 50.5052 11.2305 50.9609C11.1654 51.3516 11.1328 51.612 11.1328 51.7422C11.1328 51.8724 11.1328 52.1003 11.1328 52.4258C11.1328 52.6862 11.1328 52.9792 11.1328 53.3047C11.1979 53.6302 11.2305 53.9232 11.2305 54.1836C11.2305 54.444 11.2305 54.6719 11.2305 54.8672C16.569 54.8672 21.8424 54.6393 27.0508 54.1836C32.2591 53.6628 37.5326 53.4023 42.8711 53.4023C43.2617 53.4023 43.6523 53.4023 44.043 53.4023C44.4336 53.4023 44.7591 53.4674 45.0195 53.5977C45.3451 53.6628 45.6055 53.8581 45.8008 54.1836C45.9961 54.444 46.0938 54.8346 46.0938 55.3555C46.0938 55.681 45.2799 56.1367 43.6523 56.7227C42.0898 57.3086 40.1042 57.9922 37.6953 58.7734C35.2865 59.4896 32.6497 60.3034 29.7852 61.2148C26.9857 62.1263 24.3815 63.0703 21.9727 64.0469C19.5638 65.0234 17.5456 66.0326 15.918 67.0742C14.3555 68.1159 13.5742 69.125 13.5742 70.1016V70.3945C13.5742 70.3945 13.5742 70.4271 13.5742 70.4922C13.6393 70.5573 13.8021 70.7201 14.0625 70.9805C14.3229 71.1758 14.4531 71.3385 14.4531 71.4688C14.4531 71.5339 14.4857 71.5664 14.5508 71.5664V71.7617C14.5508 71.8268 14.5833 71.8594 14.6484 71.8594C14.6484 71.8594 14.6159 71.8919 14.5508 71.957C14.5508 71.957 14.5508 71.9896 14.5508 72.0547C14.4857 72.1198 14.4531 72.1849 14.4531 72.25C14.4531 72.3151 14.3229 72.4779 14.0625 72.7383C13.8021 72.9336 13.6393 73.0312 13.5742 73.0312C13.5091 73.2266 13.3464 73.5521 13.0859 74.0078C12.8906 74.4635 12.793 74.724 12.793 74.7891C12.793 76.9375 13.151 78.793 13.8672 80.3555C14.6484 81.8529 15.6576 83.0898 16.8945 84.0664C18.1315 84.9779 19.5638 85.6615 21.1914 86.1172C22.8841 86.5729 24.6419 86.8008 26.4648 86.8008C29.0039 86.8008 31.3151 86.4427 33.3984 85.7266C35.4818 85.0104 37.4349 84.0339 39.2578 82.7969C41.0807 81.5599 42.806 80.1276 44.4336 78.5C46.1263 76.8073 47.7865 74.9844 49.4141 73.0312C49.4792 73.0312 49.5768 72.8685 49.707 72.543C49.9023 72.2174 50.0977 71.8919 50.293 71.5664C50.4883 71.1758 50.651 70.8177 50.7812 70.4922C50.9766 70.1016 51.0742 69.8411 51.0742 69.7109C51.0742 69.6458 51.0742 69.5156 51.0742 69.3203C51.1393 69.0599 51.1719 68.8646 51.1719 68.7344C51.1719 68.3438 51.0417 68.0508 50.7812 67.8555C50.5859 67.5951 50.3255 67.3997 50 67.2695C49.6745 67.1393 49.3164 67.0742 48.9258 67.0742C48.6003 67.0091 48.2422 66.9766 47.8516 66.9766C47.8516 66.0651 48.2747 65.4466 49.1211 65.1211C49.9674 64.7956 50.8138 64.6328 51.6602 64.6328C52.6367 64.6328 53.3529 64.9583 53.8086 65.6094C54.3294 66.2604 54.5898 67.0742 54.5898 68.0508C54.5898 69.8737 54.1016 71.7292 53.125 73.6172C52.1484 75.4401 50.8789 77.2305 49.3164 78.9883C47.7539 80.681 45.931 82.276 43.8477 83.7734C41.8294 85.2057 39.7461 86.4753 37.5977 87.582C35.4492 88.6237 33.3333 89.4701 31.25 90.1211C29.1667 90.7721 27.2786 91.0977 25.5859 91.0977C22.7214 91.0977 20.3451 90.6419 18.457 89.7305C16.569 88.7539 14.974 87.4518 13.6719 85.8242C12.3698 84.1315 11.3281 82.2109 10.5469 80.0625C9.83073 77.849 9.17969 75.5052 8.59375 73.0312ZM10.9375 56.625C10.9375 57.9922 11.0026 59.1641 11.1328 60.1406C11.1979 61.0521 11.263 61.8659 11.3281 62.582C11.4583 63.2982 11.6536 63.6562 11.9141 63.6562H12.793C12.8581 63.6562 13.2812 63.526 14.0625 63.2656C14.8438 62.9401 15.7552 62.5495 16.7969 62.0938C17.9036 61.638 19.0104 61.1823 20.1172 60.7266C21.2891 60.2057 22.2331 59.8151 22.9492 59.5547C23.1445 59.4896 23.3724 59.3594 23.6328 59.1641C23.9583 58.9688 24.3164 58.806 24.707 58.6758C25.0977 58.4805 25.4232 58.2852 25.6836 58.0898C26.0091 57.8945 26.2695 57.7969 26.4648 57.7969C25.293 57.4714 24.0234 57.2435 22.6562 57.1133C21.2891 56.918 19.8893 56.7878 18.457 56.7227C17.0898 56.6576 15.7227 56.625 14.3555 56.625C13.0534 56.625 11.9141 56.625 10.9375 56.625Z" fill="#E33D42"/>
<path d="M66.4313 56H63.0313V91H65.2313V62.45H65.4313L80.8813 91.6H81.7813L97.5813 62.65H97.7813V91H102.331V56H98.8813L82.6813 86.05H82.4813L66.4313 56ZM116.35 56V91H120.9V56H116.35ZM134.906 91V56H139.456V88.25H157.506V91H134.906Z" fill="black"/>
</svg>
