<svg width="146" height="82" viewBox="0 0 146 82" fill="none" xmlns="http://www.w3.org/2000/svg">
<path d="M3.12 59V58.232L6.96 56.312V30.008L3.12 28.088V27.32H26.592V35.576H25.824L22.848 29.96H11.28V41.336H19.44L21.84 37.352H22.608V47.864H21.84L19.44 43.976H11.28V56.36H24.192L27.168 50.264H27.936V59H3.12ZM34.1925 59V58.232L37.9845 56.312L38.9925 30.056L34.8645 28.088V27.32H43.7445L54.8325 52.856L65.8725 27.32H74.3205V28.088L70.2885 30.008L71.1045 56.312L74.4645 58.232V59H63.4245V58.232L66.9765 56.36L66.4965 32.696L55.0245 59.24H52.8645L41.5845 33.032L40.9605 56.36L44.8485 58.232V59H34.1925ZM80.7038 59V58.232L84.5438 56.312V30.008L80.7038 28.088V27.32H92.7038V28.088L88.8638 30.008V56.312L92.7038 58.232V59H80.7038ZM99.1669 59V58.232L103.007 56.312V30.008L99.1669 28.088V27.32H111.647V28.088L107.327 30.008V56.36H118.991L122.255 48.344H123.023V59H99.1669Z" fill="url(#paint0_radial)"/>
<path d="M19.34 17V4.4H23.48C24.476 4.4 25.388 4.562 26.216 4.886C27.044 5.198 27.752 5.636 28.34 6.2C28.94 6.752 29.402 7.412 29.726 8.18C30.062 8.948 30.23 9.776 30.23 10.664C30.23 11.588 30.056 12.44 29.708 13.22C29.372 13.988 28.904 14.654 28.304 15.218C27.716 15.782 27.026 16.22 26.234 16.532C25.442 16.844 24.596 17 23.696 17H19.34ZM20.978 16.208H22.958C23.942 16.208 24.776 16.046 25.46 15.722C26.156 15.386 26.726 14.954 27.17 14.426C27.614 13.898 27.938 13.31 28.142 12.662C28.346 12.002 28.448 11.348 28.448 10.7C28.448 9.98 28.328 9.29 28.088 8.63C27.848 7.958 27.494 7.37 27.026 6.866C26.57 6.35 26 5.942 25.316 5.642C24.632 5.342 23.846 5.192 22.958 5.192H20.978V16.208ZM32.9237 4.4V17H34.5617V11.438H35.3537C35.6897 11.438 35.9657 11.468 36.1817 11.528C36.4097 11.588 36.6137 11.69 36.7937 11.834C36.9737 11.978 37.1417 12.164 37.2977 12.392C37.4537 12.62 37.6397 12.902 37.8557 13.238L39.2777 15.344C39.4577 15.62 39.6317 15.872 39.7997 16.1C39.9797 16.328 40.1717 16.526 40.3757 16.694C40.5797 16.85 40.8077 16.976 41.0597 17.072C41.3237 17.168 41.6357 17.216 41.9957 17.216C42.2597 17.216 42.4757 17.204 42.6437 17.18C42.8117 17.156 42.9797 17.096 43.1477 17V16.334C43.0877 16.346 43.0277 16.358 42.9677 16.37C42.9077 16.37 42.8477 16.37 42.7877 16.37C42.5357 16.37 42.3137 16.334 42.1217 16.262C41.9297 16.19 41.7497 16.088 41.5817 15.956C41.4137 15.812 41.2517 15.644 41.0957 15.452C40.9397 15.248 40.7777 15.02 40.6097 14.768C40.1057 14.036 39.7157 13.454 39.4397 13.022C39.1637 12.578 38.9417 12.236 38.7737 11.996C38.6177 11.756 38.4857 11.582 38.3777 11.474C38.2817 11.366 38.1617 11.276 38.0177 11.204L37.8377 11.114V11.042C38.4137 11.006 38.9057 10.88 39.3137 10.664C39.7337 10.448 40.0757 10.178 40.3397 9.854C40.6037 9.53 40.7957 9.182 40.9157 8.81C41.0357 8.426 41.0957 8.054 41.0957 7.694C41.0957 7.37 41.0297 7.016 40.8977 6.632C40.7777 6.248 40.5617 5.894 40.2497 5.57C39.9497 5.234 39.5357 4.958 39.0077 4.742C38.4797 4.514 37.8137 4.4 37.0097 4.4H32.9237ZM34.5617 5.192H36.3797C36.8357 5.192 37.2437 5.258 37.6037 5.39C37.9757 5.522 38.2937 5.708 38.5577 5.948C38.8217 6.176 39.0197 6.452 39.1517 6.776C39.2957 7.1 39.3677 7.454 39.3677 7.838C39.3677 8.162 39.3017 8.492 39.1697 8.828C39.0497 9.152 38.8637 9.452 38.6117 9.728C38.3597 9.992 38.0477 10.208 37.6757 10.376C37.3157 10.544 36.8957 10.628 36.4157 10.628H34.5617V5.192ZM52.8456 13.292L54.5736 17H56.3196L50.4516 4.4H49.5516L44.2236 17H45.0516L46.6356 13.292H52.8456ZM52.4676 12.482H46.9776L49.5696 6.416H49.6416L52.4676 12.482ZM70.4932 11.384H66.9292V12.122H68.9452V15.38C68.4052 15.728 67.8532 15.986 67.2892 16.154C66.7252 16.322 66.0832 16.406 65.3632 16.406C64.4152 16.406 63.5872 16.262 62.8792 15.974C62.1712 15.686 61.5832 15.29 61.1152 14.786C60.6472 14.27 60.2932 13.664 60.0532 12.968C59.8252 12.26 59.7112 11.486 59.7112 10.646C59.7112 9.818 59.8192 9.056 60.0352 8.36C60.2632 7.664 60.5992 7.064 61.0432 6.56C61.4872 6.056 62.0272 5.666 62.6632 5.39C63.3112 5.114 64.0612 4.976 64.9132 4.976C65.4772 4.976 66.0052 5.036 66.4972 5.156C66.9892 5.276 67.4272 5.432 67.8112 5.624C68.1952 5.816 68.5072 6.038 68.7472 6.29C68.9992 6.53 69.1612 6.776 69.2332 7.028H70.5292C70.4212 6.764 70.2352 6.47 69.9712 6.146C69.7192 5.81 69.3712 5.498 68.9272 5.21C68.4832 4.922 67.9312 4.682 67.2712 4.49C66.6232 4.286 65.8552 4.184 64.9672 4.184C63.9472 4.184 63.0052 4.328 62.1412 4.616C61.2892 4.904 60.5512 5.318 59.9272 5.858C59.3032 6.398 58.8172 7.064 58.4692 7.856C58.1212 8.636 57.9472 9.524 57.9472 10.52C57.9472 11.372 58.0792 12.2 58.3432 13.004C58.6192 13.796 59.0332 14.51 59.5852 15.146C60.1492 15.77 60.8632 16.274 61.7272 16.658C62.5912 17.03 63.6232 17.216 64.8232 17.216C65.7232 17.216 66.5212 17.12 67.2172 16.928C67.9132 16.724 68.4892 16.502 68.9452 16.262V17H70.4932V11.384ZM80.7421 13.292L82.4701 17H84.2161L78.3481 4.4H77.4481L72.1201 17H72.9481L74.5321 13.292H80.7421ZM80.3641 12.482H74.8741L77.4661 6.416H77.5381L80.3641 12.482ZM97.0757 4.4V14.03H97.0037L87.0137 4.184H86.9237V17H87.7517V7.37H87.8237L97.8137 17.216H97.9037V4.4H97.0757Z" fill="url(#paint1_radial)"/>
<defs>
<radialGradient id="paint0_radial" cx="0" cy="0" r="1" gradientUnits="userSpaceOnUse" gradientTransform="translate(73 45) rotate(90) scale(37 73)">
<stop offset="0.9999" stop-color="#332F2F"/>
<stop offset="1" stop-opacity="0"/>
</radialGradient>
<radialGradient id="paint1_radial" cx="0" cy="0" r="1" gradientUnits="userSpaceOnUse" gradientTransform="translate(65.5 11) rotate(90) scale(11 48.5)">
<stop offset="0.9999" stop-color="#332F2F"/>
<stop offset="1" stop-opacity="0"/>
</radialGradient>
</defs>
</svg>
