<svg width="71" height="111" viewBox="0 0 71 111" fill="none" xmlns="http://www.w3.org/2000/svg">
<path fill-rule="evenodd" clip-rule="evenodd" d="M22 0C9.84974 0 0 9.84974 0 22V89C0 101.15 9.84974 111 22 111H49C61.1503 111 71 101.15 71 89V22C71 9.84974 61.1503 0 49 0H22ZM66.6308 17.575H4.36923V93.425H66.6308V17.575ZM29.0174 4.7287C29.0174 4.04144 29.5745 3.4843 30.2618 3.4843H40.7382C41.4254 3.4843 41.9826 4.04144 41.9826 4.7287C41.9826 5.41596 41.4254 5.97309 40.7382 5.97309H30.2618C29.5745 5.97309 29.0174 5.41596 29.0174 4.7287ZM35.8087 107.018C38.5365 107.018 40.7478 105.235 40.7478 103.036C40.7478 100.837 38.5365 99.0538 35.8087 99.0538C33.0809 99.0538 30.8696 100.837 30.8696 103.036C30.8696 105.235 33.0809 107.018 35.8087 107.018Z" fill="#495057"/>
</svg>
